# xmcd
#
# Track frame offsets:
#	150
#	17484
#	39248
#	66599
#	87053
#	102789
#	119881
#	143163
#	162160
#	183043
#
# Disc length: 2732 seconds
#
# Revision: 0
# Processed by: cddbd v1.5.2PL0 Copyright (c) Steve Scherf et al.
# Submitted via: EZCDAudioConverter 7.0.5.1
#
DISCID=7c0aaa0a
DTITLE=Jessy Martens And Band - Tricky Thing
DYEAR=2015
DGENRE=Blues Rock
TTITLE0=Stronger
TTITLE1=Pack of Lies
TTITLE2=Hush Now
TTITLE3=Tricky Thing
TTITLE4=Insanity
TTITLE5=Undercover
TTITLE6=Fire
TTITLE7=Home
TTITLE8=By Your Side
TTITLE9=Giants
EXTD=
EXTT0=
EXTT1=
EXTT2=
EXTT3=
EXTT4=
EXTT5=
EXTT6=
EXTT7=
EXTT8=
EXTT9=
PLAYORDER=
